<?xml version="1.0" encoding="utf-8"?>
<!-- Generator: Adobe Illustrator 23.0.1, SVG Export Plug-In . SVG Version: 6.00 Build 0)  -->
<svg version="1.1" id="Layer_1" xmlns="http://www.w3.org/2000/svg" xmlns:xlink="http://www.w3.org/1999/xlink" x="0px" y="0px"
	 viewBox="0 0 30 30" style="enable-background:new 0 0 30 30;" xml:space="preserve">
<style type="text/css">
	.st0{fill-rule:evenodd;clip-rule:evenodd;fill:#FFFFFF;}
</style>
<path id="dribbble" class="st0" d="M15,29.4C7,29.5,0.6,23.1,0.5,15.1C0.4,7.2,6.8,0.7,14.8,0.6c8-0.1,14.4,6.3,14.5,14.3
	c0,0,0,0.1,0,0.1C29.3,22.9,22.9,29.4,15,29.4C15,29.4,15,29.4,15,29.4z M8.7,6.3C7.9,6.9,7.1,7.6,6.5,8.5h0
	C6.4,8.6,6.3,8.8,6.2,8.9C6,9.1,5.9,9.3,5.8,9.5l0,0.1c-0.2,0.4-0.4,0.7-0.6,1.1l0,0c-0.1,0.3-0.3,0.7-0.4,1c0.1-0.3,0.2-0.7,0.4-1
	c-0.1,0.3-0.3,0.7-0.4,1v0c-0.1,0.3-0.2,0.7-0.3,1c0.1-0.3,0.2-0.7,0.3-1c-1,3.1-0.5,6.4,1.2,9.2l0,0c0,0.1,0.1,0.1,0.1,0.1
	c0.2,0.4,0.5,0.7,0.8,1l0,0l0,0c0,0,0,0,0,0c0.3,0.3,0.6,0.6,0.9,0.9c0,0,0.1,0.1,0.1,0.1s0.1,0.1,0.1,0.1c0.3,0.3,0.7,0.5,1,0.8
	c0.1,0,0.1,0.1,0.2,0.1c0.3,0.2,0.7,0.4,1,0.6c0.1,0,0.1,0.1,0.2,0.1c-0.1,0-0.1-0.1-0.2-0.1c0.1,0,0.1,0.1,0.2,0.1c0,0,0,0-0.1,0
	c0,0,0,0,0.1,0c0.4,0.2,0.8,0.3,1.2,0.5c0.1,0,0.2,0.1,0.3,0.1c0.4,0.1,0.9,0.2,1.4,0.3l0,0c1.3-2.4,2.1-5.1,2.3-7.8l0,0
	c-3.3,0.4-6.2,2.4-7.8,5.3c0,0-0.1-0.1-0.1-0.1c-0.3-0.3-0.6-0.6-0.9-0.9c0,0,0,0,0-0.1l0,0l0,0c-0.3-0.3-0.5-0.7-0.8-1
	c0-0.1-0.1-0.1-0.1-0.2c2.4-3.1,5.9-5.2,9.7-5.7c0-0.2,0-0.5-0.1-0.7c0-0.3-0.1-0.6-0.2-0.9c0-0.2-0.1-0.3-0.1-0.5
	c-0.7,0.1-1.5,0.2-2.2,0.2c-2.9,0-5.7-0.9-8-2.5l0,0c0.2-0.4,0.4-0.8,0.6-1.2c0,0,0,0,0,0C5.9,9.3,6,9.1,6.2,8.9
	c0.1-0.2,0.2-0.3,0.3-0.5c2,1.4,4.3,2.1,6.7,2c0.5,0,0.9,0,1.4-0.1l0,0c0-0.1,0.1-0.1,0.1-0.1c-0.8-2-1.9-3.8-3.2-5.4
	C10.4,5.2,9.5,5.7,8.7,6.3z M23.7,8.7L23.7,8.7c-0.2-0.3-0.5-0.7-0.8-1l-0.1-0.1l0,0l0,0c-0.3-0.3-0.5-0.5-0.8-0.8
	c0,0-0.1-0.1-0.1-0.1l0,0c-1.9-1.6-4.3-2.5-6.8-2.5c-0.1,0-0.2,0-0.2,0l0,0c-1.1,0-2.3,0.2-3.3,0.6l0,0c1.1-0.4,2.2-0.6,3.3-0.6l0,0
	c1,1.6,1.9,3.3,2.5,5c0,0,0,0,0,0c0.1,0.1,0.1,0.3,0.2,0.5c1.7-0.6,3.2-1.7,4.3-3.1c0,0,0.1,0.1,0.1,0.1c0.3,0.2,0.6,0.5,0.8,0.8
	l0,0C23.1,7.9,23.4,8.3,23.7,8.7L23.7,8.7c-1.5,1.6-3.4,2.8-5.5,3.6c0.2,0.9,0.3,1.8,0.4,2.8c2.4,0.1,4.8,0.7,7,1.8c0,0,0,0,0,0
	c-0.1,0.4-0.2,0.8-0.3,1.1c0,0,0,0.1,0,0.1c-0.1,0.4-0.3,0.8-0.4,1.2l0,0c-1.9-1-4.1-1.5-6.3-1.6c0,0.1,0,0.2,0,0.3c0,0,0,0,0,0
	c-0.1,2.6-0.7,5.2-1.7,7.6c-0.1,0-0.1,0-0.2,0c-0.1,0-0.3,0-0.4,0c-0.4,0.1-0.8,0.1-1.2,0.1c0.3,0,0.6,0,0.9,0c0.1,0,0.2,0,0.3,0
	c0.1,0,0.3,0,0.4,0c0.1,0,0.1,0,0.2,0c0.3-0.1,0.7-0.1,1-0.2h0l0,0l0,0l0,0c1-0.3,1.9-0.7,2.7-1.2c0.4-0.3,0.9-0.6,1.3-0.9
	c0,0-0.1,0.1-0.1,0.1c0,0,0.1-0.1,0.1-0.1c0.1-0.1,0.2-0.2,0.3-0.2c0.3-0.3,0.6-0.5,0.8-0.8c0.1-0.1,0.2-0.3,0.3-0.4
	c0.1-0.1,0.2-0.2,0.2-0.3c-0.1,0.1-0.2,0.2-0.2,0.3c0.7-0.8,1.2-1.7,1.6-2.6l0,0c0.2-0.4,0.3-0.8,0.4-1.2c0,0,0-0.1,0-0.1
	c0.1-0.4,0.2-0.8,0.3-1.1c0,0,0,0,0,0l0,0C26.1,14,25.4,11,23.7,8.7L23.7,8.7z M16.8,25.6L16.8,25.6c0.3-0.1,0.6-0.1,1-0.2
	C17.4,25.5,17.1,25.6,16.8,25.6L16.8,25.6z M17.8,25.4L17.8,25.4L17.8,25.4C17.8,25.4,17.8,25.4,17.8,25.4L17.8,25.4z M22,23.1
	c-0.1,0.1-0.2,0.2-0.3,0.2l0,0C21.9,23.3,22,23.2,22,23.1L22,23.1z M22,23.1c0.3-0.3,0.6-0.5,0.8-0.8C22.6,22.6,22.3,22.9,22,23.1
	L22,23.1z M23.2,21.9L23.2,21.9c-0.1,0.1-0.2,0.3-0.3,0.4l0,0C23,22.2,23.1,22,23.2,21.9L23.2,21.9z M8.7,6.3
	c0.8-0.6,1.8-1.1,2.7-1.5C10.4,5.2,9.5,5.7,8.7,6.3z M8.1,23.3c0,0-0.1-0.1-0.1-0.1l0,0C8,23.2,8.1,23.2,8.1,23.3L8.1,23.3z M9.2,24
	L9.2,24c-0.4-0.2-0.7-0.5-1-0.8l0,0C8.4,23.5,8.8,23.8,9.2,24L9.2,24z M10.4,24.7L10.4,24.7c-0.4-0.2-0.7-0.4-1-0.6h0
	C9.7,24.4,10,24.6,10.4,24.7L10.4,24.7z M11.9,25.3c-0.4-0.1-0.8-0.3-1.2-0.5l0,0C11,25,11.5,25.2,11.9,25.3L11.9,25.3L11.9,25.3z
	 M12.2,25.4c-0.1,0-0.2-0.1-0.3-0.1C12,25.3,12.1,25.4,12.2,25.4z M13.5,25.7c-0.5-0.1-0.9-0.2-1.4-0.3l0,0
	C12.6,25.5,13.1,25.6,13.5,25.7L13.5,25.7z M9.2,24c0.1,0,0.1,0.1,0.2,0.1C9.3,24.1,9.2,24.1,9.2,24L9.2,24z"/>
</svg>
