<svg xmlns="http://www.w3.org/2000/svg" width="30" height="30" viewBox="0 0 30 30">
  <defs>
    <style>
      .cls-1 {
        fill: #030303;
        fill-rule: evenodd;
      }
    </style>
  </defs>
  <path id="dribbble" class="cls-1" d="M634.033,335.4A14.4,14.4,0,1,1,648.321,321,14.344,14.344,0,0,1,634.033,335.4Zm-6.323-23.1a10.875,10.875,0,0,0-2.181,2.168l-0.008,0c-0.115.151-.212,0.317-0.319,0.475-0.132.194-.27,0.381-0.39,0.584l-0.036.06a10.434,10.434,0,0,0-.572,1.126h0q-0.208.484-.371,0.992,0.162-.507.371-0.992a10.587,10.587,0,0,0-.375,1.009l0-.016q-0.16.509-.274,1.037,0.111-.52.271-1.021a10.788,10.788,0,0,0,1.231,9.159l-0.007.009c0.033,0.051.075,0.1,0.109,0.145a10.918,10.918,0,0,0,.788,1.049l0.016,0.018,0.025,0.028c0.008,0.009.017,0.016,0.025,0.025a10.917,10.917,0,0,0,.886.888c0.045,0.041.083,0.089,0.129,0.129s0.078,0.056.114,0.086a10.6,10.6,0,0,0,1.04.784c0.07,0.046.143,0.086,0.214,0.131a10.644,10.644,0,0,0,1.038.571c0.052,0.025.1,0.059,0.151,0.083-0.053-.024-0.1-0.058-0.151-0.083,0.076,0.036.149,0.076,0.225,0.111-0.024-.011-0.05-0.017-0.073-0.028,0.023,0.011.049,0.017,0.073,0.028a10.622,10.622,0,0,0,1.246.466c0.1,0.03.2,0.057,0.3,0.085a10.685,10.685,0,0,0,1.368.292h0a18.443,18.443,0,0,0,2.3-7.837l-0.011-.01a10.2,10.2,0,0,0-7.825,5.311c-0.045-.039-0.091-0.079-0.135-0.119a10.917,10.917,0,0,1-.886-0.888c-0.016-.019-0.034-0.035-0.05-0.053l-0.016-.018h0a10.635,10.635,0,0,1-.788-1.049c-0.035-.051-0.068-0.1-0.1-0.154a14.944,14.944,0,0,1,9.749-5.722c-0.02-.245-0.05-0.491-0.082-0.74-0.044-.317-0.089-0.635-0.15-0.949-0.029-.154-0.054-0.31-0.087-0.461a13.753,13.753,0,0,1-2.243.2,14.6,14.6,0,0,1-8.043-2.5h0a10.765,10.765,0,0,1,.608-1.186c0.008-.012.015-0.024,0.022-0.037,0.113-.189.245-0.365,0.368-0.547,0.107-.158.211-0.319,0.327-0.471a11.559,11.559,0,0,0,6.718,2.037,12.513,12.513,0,0,0,1.352-.087l-0.012-.026c0.02-.057.052-0.1,0.075-0.15a18.853,18.853,0,0,0-3.219-5.4A10.639,10.639,0,0,0,627.71,312.3Zm15.006,2.393h0a11.326,11.326,0,0,0-.8-0.986l-0.1-.112-0.013-.014h0a10.655,10.655,0,0,0-.806-0.77c-0.046-.04-0.085-0.087-0.131-0.126l-0.012.012a10.588,10.588,0,0,0-6.82-2.492c-0.083,0-.163.011-0.246,0.013h0a10.564,10.564,0,0,0-3.344.622h0a10.564,10.564,0,0,1,3.344-.622h0a22.39,22.39,0,0,1,2.5,5.031c0.01,0.007.026,0.011,0.035,0.018,0.069,0.136.138,0.3,0.207,0.483a10.065,10.065,0,0,0,4.324-3.053c0.047,0.04.1,0.074,0.143,0.114a10.47,10.47,0,0,1,.806.77l0.013,0.014a10.775,10.775,0,0,1,.9,1.1h0a15.048,15.048,0,0,1-5.51,3.586,26.916,26.916,0,0,1,.393,2.762,17.311,17.311,0,0,1,6.988,1.757c0,0.014,0,.029-0.007.043a11.229,11.229,0,0,1-.258,1.137c-0.014.05-.025,0.1-0.039,0.15a10.356,10.356,0,0,1-.424,1.181h0a15,15,0,0,0-6.266-1.576c-0.014.086-.026,0.176-0.044,0.253a0.368,0.368,0,0,1-.015.035,22.5,22.5,0,0,1-1.716,7.608c-0.067.012-.131,0.03-0.2,0.041-0.126.019-.252,0.035-0.379,0.05a10.027,10.027,0,0,1-1.208.085c0.313,0,.62-0.021.925-0.047,0.1-.009.188-0.026,0.283-0.038,0.127-.015.253-0.031,0.379-0.05,0.064-.01.129-0.015,0.192-0.026,0.333-.056.661-0.128,0.983-0.214l0.007,0h0l0,0,0,0a10.685,10.685,0,0,0,2.733-1.168,11.027,11.027,0,0,0,1.273-.911c-0.05.041-.094,0.089-0.144,0.129,0.05-.04.094-0.088,0.144-0.129,0.092-.076.176-0.16,0.265-0.239a10.583,10.583,0,0,0,.815-0.8c0.118-.128.231-0.257,0.342-0.39,0.076-.092.162-0.174,0.235-0.268-0.073.094-.159,0.176-0.234,0.267a10.733,10.733,0,0,0,1.627-2.612h0a11.043,11.043,0,0,0,.424-1.181c0.014-.049.025-0.1,0.039-0.15a10.907,10.907,0,0,0,.258-1.137c0-.014.007-0.027,0.009-0.042h0A10.637,10.637,0,0,0,642.716,314.688Zm-6.9,16.951,0.006-.015c0.321-.056.644-0.112,0.956-0.2C636.458,331.513,636.138,331.584,635.812,331.639Zm0.99-.216-0.007,0-0.021,0A0.28,0.28,0,0,1,636.8,331.423Zm4.272-2.318c-0.089.079-.173,0.163-0.265,0.239h0c0.092-.076.177-0.161,0.266-0.24A0,0,0,0,1,641.074,329.105Zm0,0a10.92,10.92,0,0,0,.814-0.8A10.92,10.92,0,0,1,641.075,329.1Zm1.157-1.188h0c-0.11.133-.225,0.262-0.342,0.39h0C642.006,328.18,642.121,328.05,642.232,327.916ZM627.71,312.3a10.639,10.639,0,0,1,2.733-1.46A10.653,10.653,0,0,0,627.71,312.3Zm-0.565,16.954c-0.036-.031-0.078-0.054-0.114-0.086l0.006-.01C627.073,329.185,627.108,329.218,627.145,329.249Zm1.042,0.785h0a10.6,10.6,0,0,1-1.04-.784h0A10.6,10.6,0,0,0,628.187,330.034Zm1.25,0.7h0a10.644,10.644,0,0,1-1.038-.571l-0.006,0A10.678,10.678,0,0,0,629.437,330.735Zm1.471,0.577a10.446,10.446,0,0,1-1.246-.466h0a10.511,10.511,0,0,0,1.25.467h0ZM631.2,331.4c-0.1-.027-0.195-0.052-0.291-0.082C631.008,331.342,631.106,331.368,631.2,331.4Zm1.373,0.294a10.858,10.858,0,0,1-1.368-.292l0,0A10.56,10.56,0,0,0,632.576,331.689Zm-4.389-1.655c0.067,0.045.138,0.084,0.206,0.126C628.325,330.118,628.254,330.079,628.187,330.034Z" transform="translate(-619.031 -306)"/>
</svg>
