<svg xmlns="http://www.w3.org/2000/svg" width="30" height="30" viewBox="0 0 30 30">
  <defs>
    <style>
      .cls-1 {
        fill: #020202;
        fill-rule: evenodd;
      }
    </style>
  </defs>
  <path id="_" data-name="@" class="cls-1" d="M684.238,314.424a11.675,11.675,0,0,0-3.021-3.857,12.755,12.755,0,0,0-4.37-2.337,17.148,17.148,0,0,0-5.149-.779,14.967,14.967,0,0,0-5.7,1.083,14.515,14.515,0,0,0-4.636,2.983A14.254,14.254,0,0,0,658.227,316a13.581,13.581,0,0,0-1.159,5.624,14.642,14.642,0,0,0,1.083,5.681,13.064,13.064,0,0,0,3.021,4.465,13.769,13.769,0,0,0,4.636,2.907,16.277,16.277,0,0,0,5.928,1.045,19.679,19.679,0,0,0,6.4-1.007,13.465,13.465,0,0,0,5.149-3.173l-2.394-2.66a12.6,12.6,0,0,1-3.857,2.413,13.112,13.112,0,0,1-4.883.855,12.516,12.516,0,0,1-4.389-.741,10.194,10.194,0,0,1-3.458-2.109A9.324,9.324,0,0,1,662.046,326a11.383,11.383,0,0,1-.8-4.37,11.75,11.75,0,0,1,.76-4.256,10.07,10.07,0,0,1,2.128-3.4,9.847,9.847,0,0,1,3.287-2.242,10.72,10.72,0,0,1,4.237-.817,12.761,12.761,0,0,1,3.971.589,8.894,8.894,0,0,1,3.116,1.729,7.691,7.691,0,0,1,2.033,2.831,9.855,9.855,0,0,1,.722,3.895,7.115,7.115,0,0,1-.893,3.971,2.5,2.5,0,0,1-2.033,1.311,0.9,0.9,0,0,1-.874-0.418,1.949,1.949,0,0,1-.228-0.95,8.136,8.136,0,0,1,.152-1.406q0.151-.836.342-1.748l1.178-5.966h-4.1l-0.266,1.292h-0.038a2.734,2.734,0,0,0-1.216-1.444,4.363,4.363,0,0,0-2.394-.608,6.062,6.062,0,0,0-3,.741,7.845,7.845,0,0,0-2.3,1.938,8.655,8.655,0,0,0-1.482,2.736,9.853,9.853,0,0,0-.513,3.135,8.384,8.384,0,0,0,.38,2.584,6.1,6.1,0,0,0,1.083,2.033,4.881,4.881,0,0,0,1.71,1.33,5.323,5.323,0,0,0,2.3.475,4.932,4.932,0,0,0,2.85-.779,5.609,5.609,0,0,0,1.672-1.653h0.152a2.482,2.482,0,0,0,1.121,1.767,4.3,4.3,0,0,0,2.489.665,7.7,7.7,0,0,0,3.059-.608,7.035,7.035,0,0,0,2.489-1.786,8.266,8.266,0,0,0,1.653-2.888A13.166,13.166,0,0,0,684.238,314.424Zm-10.792,7.733a5.827,5.827,0,0,1-.57,1.482,3.377,3.377,0,0,1-.988,1.121,2.4,2.4,0,0,1-1.444.437,1.681,1.681,0,0,1-1.653-.855,3.915,3.915,0,0,1-.437-1.805,6.763,6.763,0,0,1,.228-1.71,6.063,6.063,0,0,1,.646-1.577,3.991,3.991,0,0,1,.988-1.14,2.245,2.245,0,0,1,2.356-.19,1.719,1.719,0,0,1,.646.665,3.113,3.113,0,0,1,.323.95,6.293,6.293,0,0,1,.095,1.1A6.544,6.544,0,0,1,673.446,322.157Z" transform="translate(-656.218 -306.578)"/>
</svg>
