<?xml version="1.0" encoding="utf-8"?>
<!-- Generator: Adobe Illustrator 23.0.1, SVG Export Plug-In . SVG Version: 6.00 Build 0)  -->
<svg version="1.1" id="Layer_1" xmlns="http://www.w3.org/2000/svg" xmlns:xlink="http://www.w3.org/1999/xlink" x="0px" y="0px"
	 viewBox="0 0 30 30" style="enable-background:new 0 0 30 30;" xml:space="preserve">
<style type="text/css">
	.st0{fill-rule:evenodd;clip-rule:evenodd;fill:#FFFFFF;}
</style>
<path id="_" class="st0" d="M28,7.8C27.3,6.4,26.3,5,25,4c-1.3-1.1-2.8-1.9-4.4-2.3c-1.7-0.5-3.4-0.8-5.1-0.8c-2,0-3.9,0.4-5.7,1.1
	c-1.7,0.7-3.3,1.7-4.6,3C3.8,6.2,2.8,7.7,2,9.4c-0.8,1.8-1.2,3.7-1.2,5.6c0,1.9,0.3,3.9,1.1,5.7c0.7,1.7,1.7,3.2,3,4.5
	c1.3,1.3,2.9,2.3,4.6,2.9c1.9,0.7,3.9,1.1,5.9,1c2.2,0,4.3-0.3,6.4-1c1.9-0.7,3.7-1.7,5.1-3.2l-2.4-2.7c-1.1,1-2.4,1.8-3.9,2.4
	c-1.6,0.6-3.2,0.9-4.9,0.9c-1.5,0-3-0.2-4.4-0.7c-1.3-0.5-2.5-1.2-3.5-2.1c-1-0.9-1.8-2-2.3-3.3C5.3,18,5,16.5,5,15.1
	c0-1.5,0.2-2.9,0.8-4.3C6.3,9.5,7,8.4,7.9,7.4c0.9-1,2.1-1.7,3.3-2.2c1.3-0.6,2.8-0.8,4.2-0.8c1.3,0,2.7,0.2,4,0.6
	c1.1,0.4,2.2,0.9,3.1,1.7c0.9,0.8,1.6,1.7,2,2.8c0.5,1.2,0.7,2.6,0.7,3.9c0.1,1.4-0.2,2.8-0.9,4c-0.4,0.8-1.2,1.3-2,1.3
	c-0.3,0-0.7-0.1-0.9-0.4c-0.2-0.3-0.2-0.6-0.2-1c0-0.5,0.1-0.9,0.2-1.4c0.1-0.6,0.2-1.1,0.3-1.7l1.2-6h-4.1l-0.3,1.3h0
	c-0.2-0.6-0.7-1.1-1.2-1.4c-0.7-0.4-1.6-0.6-2.4-0.6c-1,0-2.1,0.2-3,0.7c-0.9,0.5-1.7,1.1-2.3,1.9c-0.7,0.8-1.2,1.7-1.5,2.7
	c-0.3,1-0.5,2.1-0.5,3.1c0,0.9,0.1,1.7,0.4,2.6c0.2,0.7,0.6,1.4,1.1,2c0.5,0.6,1,1,1.7,1.3c0.7,0.3,1.5,0.5,2.3,0.5
	c1,0,2-0.2,2.8-0.8c0.7-0.4,1.2-1,1.7-1.7h0.2c0.1,0.7,0.5,1.4,1.1,1.8c0.7,0.5,1.6,0.7,2.5,0.7c1.1,0,2.1-0.2,3.1-0.6
	c1-0.4,1.8-1,2.5-1.8c0.7-0.8,1.3-1.8,1.7-2.9C29.5,14.1,29.3,10.8,28,7.8z M17.2,15.6c-0.1,0.5-0.3,1-0.6,1.5
	c-0.2,0.4-0.6,0.8-1,1.1c-0.4,0.3-0.9,0.5-1.4,0.4c-0.7,0.1-1.3-0.3-1.7-0.9c-0.3-0.6-0.4-1.2-0.4-1.8c0-0.6,0.1-1.2,0.2-1.7
	c0.1-0.6,0.4-1.1,0.6-1.6c0.3-0.4,0.6-0.8,1-1.1c0.7-0.5,1.6-0.6,2.4-0.2c0.3,0.2,0.5,0.4,0.6,0.7c0.2,0.3,0.3,0.6,0.3,1
	c0.1,0.4,0.1,0.7,0.1,1.1C17.4,14.6,17.4,15.1,17.2,15.6z"/>
</svg>
