<svg xmlns="http://www.w3.org/2000/svg" width="30" height="30" viewBox="0 0 30 30">
  <defs>
    <style>
      .cls-1 {
        fill: #060606;
        fill-rule: evenodd;
      }
    </style>
  </defs>
  <path id="instagram" class="cls-1" d="M582.231,334.6H560.8a3.587,3.587,0,0,1-3.572-3.6V309.4a3.587,3.587,0,0,1,3.572-3.6h21.432a3.587,3.587,0,0,1,3.572,3.6V331A3.587,3.587,0,0,1,582.231,334.6Zm-10.716-19.8a5.4,5.4,0,1,0,5.358,5.4A5.379,5.379,0,0,0,571.515,314.8Zm10.716-4.05a1.316,1.316,0,0,0-1.34-1.35h-2.679a1.316,1.316,0,0,0-1.339,1.35v2.7a1.316,1.316,0,0,0,1.339,1.35h2.679a1.255,1.255,0,0,0,1.34-1.35v-2.7Zm0,7.65h-1.966a8.93,8.93,0,1,1-17.5,0H560.8v10.8a1.793,1.793,0,0,0,1.786,1.8h17.86a1.793,1.793,0,0,0,1.786-1.8V318.4Z" transform="translate(-556.515 -305.203)"/>
</svg>
