<?xml version="1.0" encoding="utf-8"?>
<!-- Generator: Adobe Illustrator 23.0.1, SVG Export Plug-In . SVG Version: 6.00 Build 0)  -->
<svg version="1.1" id="Layer_1" xmlns="http://www.w3.org/2000/svg" xmlns:xlink="http://www.w3.org/1999/xlink" x="0px" y="0px"
	 viewBox="0 0 1000 1000" style="enable-background:new 0 0 1000 1000;" xml:space="preserve">
<style type="text/css">
	.st0{fill:#FFFFFF;}
</style>
<path class="st0" d="M195.9,0.2C88.2,0.2,0,88.4,0,196.1V804c0,107.7,88.2,195.8,195.9,195.8h607.8c107.7,0,195.8-88.1,195.8-195.8
	V196.1c0-107.7-88.1-195.9-195.8-195.9L195.9,0.2L195.9,0.2z M245.1,165.2c51.6,0,83.5,33.9,84.4,78.5c0,43.6-32.8,78.4-85.4,78.4
	h-1c-50.7,0-83.4-34.9-83.4-78.4C159.8,199.1,193.5,165.2,245.1,165.2L245.1,165.2z M690.2,373.5c99.3,0,173.8,64.9,173.8,204.4
	v260.4h-151v-243c0-61.1-21.8-102.7-76.5-102.7c-41.7,0-66.6,28.1-77.5,55.2c-4,9.7-5,23.3-5,36.8v253.7h-151c0,0,2-411.6,0-454.2
	h151v64.3C574.2,417.5,610.1,373.5,690.2,373.5L690.2,373.5z M168.7,384.2h151v454.2h-151V384.2L168.7,384.2z"/>
</svg>
