<svg xmlns="http://www.w3.org/2000/svg" width="381" height="88" viewBox="0 0 381 88">
  <defs>
    <style>
      .cls-1 {
        fill: #010101;
        fill-rule: evenodd;
      }
    </style>
  </defs>
  <path id="_382C_PROJ." data-name="382C PROJ." class="cls-1" d="M427.129,445.4a31.839,31.839,0,0,1,4.86.3,6.011,6.011,0,0,1,2.94,1.2,4.693,4.693,0,0,1,1.5,2.46,16.168,16.168,0,0,1,.42,4.08v12.24a7.312,7.312,0,0,1-1.62,4.98,6.087,6.087,0,0,1-8.76,0,6.954,6.954,0,0,1-1.62-4.74v-6.36h-12.24v6.96a18.911,18.911,0,0,0,1.74,8.52,16.917,16.917,0,0,0,4.38,5.64,16.661,16.661,0,0,0,5.88,3.12,21.608,21.608,0,0,0,6.12.96,17.357,17.357,0,0,0,9.24-2.22,19.122,19.122,0,0,0,5.88-5.58,19.8,19.8,0,0,0,1.56-2.76,14.25,14.25,0,0,0,.96-3.18,37.841,37.841,0,0,0,.54-4.62q0.18-2.759.18-6.96,0-4.559-.12-7.5a17.9,17.9,0,0,0-.84-5.04,9.809,9.809,0,0,0-2.22-3.66,23.321,23.321,0,0,0-4.38-3.36,27.709,27.709,0,0,0,4.14-2.88,8.615,8.615,0,0,0,2.28-3.18,14.44,14.44,0,0,0,.96-4.62q0.18-2.758.18-7.2a67.1,67.1,0,0,0-.3-6.9,31.013,31.013,0,0,0-.84-4.8,13.8,13.8,0,0,0-1.44-3.48,23.6,23.6,0,0,0-2.1-2.94,19.242,19.242,0,0,0-4.98-4.02,15.993,15.993,0,0,0-8.34-1.98,18.076,18.076,0,0,0-7.2,1.44,19.7,19.7,0,0,0-5.88,3.84,17.235,17.235,0,0,0-3.96,5.76,17.793,17.793,0,0,0-1.44,7.08v7.08h12.24v-6.96a7.091,7.091,0,0,1,1.38-3.96q1.379-2.038,4.62-2.04a5.8,5.8,0,0,1,4.38,1.68,5.969,5.969,0,0,1,1.62,4.32v11.04q0,4.8-2.1,6.12t-7.62,1.32v10.8Zm51.36-16.8a5.7,5.7,0,0,1-1.8,4.26,5.939,5.939,0,0,1-8.4,0,5.7,5.7,0,0,1-1.8-4.26v-12.48a5.7,5.7,0,0,1,1.8-4.26,5.939,5.939,0,0,1,8.4,0,5.7,5.7,0,0,1,1.8,4.26V428.6Zm-24.12-1.2a19.61,19.61,0,0,0,.72,4.68,10.892,10.892,0,0,0,1.86,3.66,22.9,22.9,0,0,0,3.42,3.42,18.28,18.28,0,0,0-3.42,3.36,11.323,11.323,0,0,0-1.86,3.96,25.75,25.75,0,0,0-.72,5.58q-0.122,3.3-.12,8.1,0,3.96.18,6.54a39.69,39.69,0,0,0,.54,4.5,12.306,12.306,0,0,0,1.02,3.24,25.1,25.1,0,0,0,1.62,2.76,17.276,17.276,0,0,0,5.76,5.34,18.082,18.082,0,0,0,24-5.34,26.091,26.091,0,0,0,1.62-2.76,12.418,12.418,0,0,0,1.02-3.24,39.69,39.69,0,0,0,.54-4.5q0.18-2.579.18-6.54,0-4.8-.12-8.1a26.128,26.128,0,0,0-.72-5.58,11.376,11.376,0,0,0-1.86-3.96,18.28,18.28,0,0,0-3.42-3.36,22.9,22.9,0,0,0,3.42-3.42,10.947,10.947,0,0,0,1.86-3.66,19.917,19.917,0,0,0,.72-4.68q0.117-2.639.12-6.48,0-3.478-.24-5.94a22.776,22.776,0,0,0-.78-4.26,15,15,0,0,0-1.38-3.24,29.142,29.142,0,0,0-2.04-3,16.576,16.576,0,0,0-6-4.86,18.353,18.353,0,0,0-15.6,0,16.551,16.551,0,0,0-6,4.86,28.212,28.212,0,0,0-2.04,3,14.858,14.858,0,0,0-1.38,3.24,22.535,22.535,0,0,0-.78,4.26q-0.243,2.462-.24,5.94Q454.249,424.761,454.369,427.4Zm24.12,39.12a5.7,5.7,0,0,1-1.8,4.26,5.939,5.939,0,0,1-8.4,0,5.7,5.7,0,0,1-1.8-4.26v-16.8a5.7,5.7,0,0,1,1.8-4.26,5.939,5.939,0,0,1,8.4,0,5.7,5.7,0,0,1,1.8,4.26v16.8Zm17.4,17.52h36.48V471.8h-22.08l18-34.68q1.44-2.759,2.28-4.68a17.737,17.737,0,0,0,1.2-3.84,31.723,31.723,0,0,0,.48-4.02q0.118-2.1.12-5.22a31.721,31.721,0,0,0-1.02-8.16,20.064,20.064,0,0,0-3.24-6.84,15.872,15.872,0,0,0-5.64-4.74,17.959,17.959,0,0,0-8.22-1.74,17.469,17.469,0,0,0-7.2,1.5,18.68,18.68,0,0,0-5.82,4.02,19.1,19.1,0,0,0-3.9,5.88,18.09,18.09,0,0,0-1.44,7.2v6.72h12.24v-6.96a5.527,5.527,0,0,1,6-6.12,5.735,5.735,0,0,1,3.48.9,5.22,5.22,0,0,1,1.74,2.22,9.9,9.9,0,0,1,.66,3.06q0.118,1.741.12,3.3,0,3.482-.24,5.82a15.236,15.236,0,0,1-1.92,5.46l-22.08,41.64v11.52Zm82.2-24.36h-12.24v4.2a10.693,10.693,0,0,1-.72,4.2,6.939,6.939,0,0,1-1.86,2.64,7.068,7.068,0,0,1-2.52,1.38,8.86,8.86,0,0,1-2.58.42q-4.2,0-5.82-2.52a11.31,11.31,0,0,1-1.62-6.24v-43.68a15.1,15.1,0,0,1,1.5-7.14q1.5-2.819,6.06-2.82a6.612,6.612,0,0,1,5.52,2.64,9.909,9.909,0,0,1,2.04,6.24v4.08h12.24v-4.8a22.091,22.091,0,0,0-1.5-8.22,19.388,19.388,0,0,0-4.14-6.48,18.676,18.676,0,0,0-6.24-4.2,20.1,20.1,0,0,0-7.8-1.5,21.186,21.186,0,0,0-8.1,1.5,18.977,18.977,0,0,0-6.3,4.14,18.367,18.367,0,0,0-4.08,6.24,20.813,20.813,0,0,0-1.44,7.8V464.6a22.26,22.26,0,0,0,1.86,9.72,17.794,17.794,0,0,0,4.74,6.18,17.168,17.168,0,0,0,6.48,3.3,27.44,27.44,0,0,0,7.08.96,18.1,18.1,0,0,0,7.62-1.62,20.48,20.48,0,0,0,6.18-4.32,19.851,19.851,0,0,0,4.14-6.3,19.462,19.462,0,0,0,1.5-7.56v-5.28Zm26.279,24.36h12.24v-33.36h6.24q6.84,0,11.04-2.34a17.866,17.866,0,0,0,6.72-6.54,20.341,20.341,0,0,0,2.82-7.5,60.88,60.88,0,0,0,.66-9.66,49.257,49.257,0,0,0-1.2-12.18,18.328,18.328,0,0,0-4.32-7.86,17.076,17.076,0,0,0-6.96-4.68,27.329,27.329,0,0,0-8.88-1.32h-18.36v85.44Zm12.24-73.92h6.36a10.937,10.937,0,0,1,5.52,1.14,6.88,6.88,0,0,1,2.82,3.12,13.425,13.425,0,0,1,1.08,4.68q0.18,2.7.18,5.7,0,3.24-.18,5.88a11.455,11.455,0,0,1-1.14,4.5,6.889,6.889,0,0,1-3,2.94,12.52,12.52,0,0,1-5.76,1.08h-5.88v-29.04Zm45.839,0h6.36a14.449,14.449,0,0,1,5.4.84,6.8,6.8,0,0,1,3.18,2.58,10.293,10.293,0,0,1,1.5,4.2,45.3,45.3,0,0,1,0,11.4,10.985,10.985,0,0,1-1.38,4.14,6.628,6.628,0,0,1-2.94,2.58,12.316,12.316,0,0,1-5.16.9h-6.96v-26.64Zm-12.24,73.92h12.24v-36.48h7.32l11.4,36.48h12.96l-13.2-39a18.084,18.084,0,0,0,8.22-8.58,31.7,31.7,0,0,0,2.34-12.78q0-25.078-21.6-25.08h-19.68v85.44Zm47.4-20.16a21.721,21.721,0,0,0,1.8,9.18,19.12,19.12,0,0,0,4.74,6.48,20.365,20.365,0,0,0,6.6,3.9,21.29,21.29,0,0,0,14.76,0,20.428,20.428,0,0,0,6.6-3.9,19.16,19.16,0,0,0,4.74-6.48,21.721,21.721,0,0,0,1.8-9.18v-45.12a21.833,21.833,0,0,0-1.8-9.12,19.049,19.049,0,0,0-4.74-6.54,20.5,20.5,0,0,0-6.6-3.9,21.29,21.29,0,0,0-14.76,0,20.436,20.436,0,0,0-6.6,3.9,19.01,19.01,0,0,0-4.74,6.54,21.833,21.833,0,0,0-1.8,9.12v45.12Zm12.24-45.12q0-4.438,2.46-6.54a9.115,9.115,0,0,1,11.64,0q2.457,2.1,2.46,6.54v45.12q0,4.441-2.46,6.54a9.115,9.115,0,0,1-11.64,0q-2.462-2.1-2.46-6.54v-45.12Zm65.039-20.16h-12.24v63.6a12.748,12.748,0,0,1-.9,5.22,9.35,9.35,0,0,1-2.16,3.12,6.872,6.872,0,0,1-2.7,1.56,9.134,9.134,0,0,1-2.52.42,7.855,7.855,0,0,1-3.66-.9,12.193,12.193,0,0,1-3.06-2.22l-9.6,7.68a32.472,32.472,0,0,0,6.18,5.1,17.352,17.352,0,0,0,9.78,2.58,21.683,21.683,0,0,0,8.76-1.68,19.618,19.618,0,0,0,6.54-4.56,20.091,20.091,0,0,0,4.14-6.66,22.22,22.22,0,0,0,1.44-7.98V398.6Zm5.64,85.44h12.24V471.8h-12.24v12.24Z" transform="translate(-412.172 -397.313)"/>
</svg>
