<?xml version="1.0" encoding="utf-8"?>
<!-- Generator: Adobe Illustrator 23.0.1, SVG Export Plug-In . SVG Version: 6.00 Build 0)  -->
<svg version="1.1" id="Layer_1" xmlns="http://www.w3.org/2000/svg" xmlns:xlink="http://www.w3.org/1999/xlink" x="0px" y="0px"
	 viewBox="0 0 381 88" style="enable-background:new 0 0 381 88;" xml:space="preserve">
<style type="text/css">
	.st0{fill-rule:evenodd;clip-rule:evenodd;fill:#FFFFFF;}
</style>
<path id="_382C_PROJ." class="st0" d="M15,48.1c1.6,0,3.3,0.1,4.9,0.3c1.1,0.1,2.1,0.5,2.9,1.2c0.7,0.6,1.3,1.5,1.5,2.5
	c0.3,1.3,0.5,2.7,0.4,4.1v12.2c0.1,1.8-0.5,3.6-1.6,5c-2.3,2.4-6.2,2.5-8.6,0.2c-0.1-0.1-0.1-0.1-0.2-0.2c-1.1-1.3-1.7-3-1.6-4.7
	v-6.4H0.4v7c-0.1,2.9,0.5,5.9,1.7,8.5c1,2.2,2.5,4.1,4.4,5.6c1.7,1.4,3.7,2.5,5.9,3.1c2,0.6,4,0.9,6.1,1c3.2,0.1,6.4-0.6,9.2-2.2
	c2.3-1.4,4.3-3.3,5.9-5.6c0.6-0.9,1.1-1.8,1.6-2.8c0.4-1,0.8-2.1,1-3.2c0.3-1.5,0.5-3.1,0.5-4.6c0.1-1.8,0.2-4.2,0.2-7
	c0-3,0-5.5-0.1-7.5c0-1.7-0.3-3.4-0.8-5c-0.5-1.4-1.2-2.6-2.2-3.7c-1.3-1.3-2.8-2.4-4.4-3.4c1.5-0.8,2.9-1.8,4.1-2.9
	c1-0.9,1.8-2,2.3-3.2c0.6-1.5,0.9-3,1-4.6c0.1-1.8,0.2-4.2,0.2-7.2c0-2.3-0.1-4.6-0.3-6.9c-0.2-1.6-0.4-3.2-0.8-4.8
	c-0.3-1.2-0.8-2.4-1.4-3.5c-0.6-1-1.3-2-2.1-2.9c-1.4-1.6-3.1-3-5-4c-2.5-1.4-5.4-2.1-8.3-2C16.4,0.5,14,1,11.7,2
	C9.5,2.9,7.6,4.2,5.8,5.8c-1.7,1.6-3,3.6-4,5.8c-1,2.2-1.4,4.6-1.4,7.1v7.1h12.2v-7c0.1-1.4,0.5-2.8,1.4-4c0.9-1.4,2.5-2,4.6-2
	c1.6-0.1,3.2,0.5,4.4,1.7c1.1,1.2,1.7,2.7,1.6,4.3v11c0,3.2-0.7,5.2-2.1,6.1s-3.9,1.3-7.6,1.3L15,48.1L15,48.1z M66.3,31.3
	c0,1.6-0.6,3.2-1.8,4.3c-2.3,2.3-6.1,2.3-8.4,0c0,0,0,0,0,0c-1.2-1.1-1.8-2.6-1.8-4.3V18.8c0-1.6,0.6-3.2,1.8-4.3
	c2.3-2.3,6.1-2.3,8.4,0c0,0,0,0,0,0c1.2,1.1,1.8,2.6,1.8,4.3V31.3z M42.2,30.1c0.1,1.6,0.3,3.2,0.7,4.7c0.4,1.3,1,2.6,1.9,3.7
	c1,1.3,2.2,2.4,3.4,3.4c-1.3,1-2.4,2.1-3.4,3.4c-0.9,1.2-1.5,2.5-1.9,4c-0.4,1.8-0.7,3.7-0.7,5.6c-0.1,2.2-0.1,4.9-0.1,8.1
	c0,2.6,0.1,4.8,0.2,6.5c0.1,1.5,0.3,3,0.5,4.5c0.2,1.1,0.5,2.2,1,3.2c0.5,1,1,1.9,1.6,2.8c1.5,2.2,3.5,4,5.8,5.3
	c8.2,4.8,18.6,2.4,24-5.3c0.6-0.9,1.1-1.8,1.6-2.8c0.5-1,0.8-2.1,1-3.2c0.3-1.5,0.4-3,0.5-4.5c0.1-1.7,0.2-3.9,0.2-6.5
	c0-3.2,0-5.9-0.1-8.1c0-1.9-0.3-3.8-0.7-5.6c-0.4-1.4-1-2.8-1.9-4c-1-1.3-2.1-2.4-3.4-3.4c1.3-1,2.4-2.2,3.4-3.4
	c0.8-1.1,1.5-2.3,1.9-3.7c0.4-1.5,0.7-3.1,0.7-4.7c0.1-1.8,0.1-3.9,0.1-6.5c0-2.3-0.1-4.3-0.2-5.9c-0.1-1.4-0.4-2.9-0.8-4.3
	c-0.3-1.1-0.8-2.2-1.4-3.2c-0.6-1-1.3-2-2-3c-1.6-2.1-3.6-3.7-6-4.9C63.2,0,57.5,0,52.5,2.3c-2.4,1.1-4.4,2.8-6,4.9
	c-0.7,1-1.4,2-2,3c-0.6,1-1.1,2.1-1.4,3.2c-0.4,1.4-0.7,2.8-0.8,4.3c-0.2,1.6-0.2,3.6-0.2,5.9C42.1,26.2,42.1,28.3,42.2,30.1
	L42.2,30.1z M66.3,69.2c0,1.6-0.6,3.2-1.8,4.3c-2.3,2.3-6.1,2.3-8.4,0c0,0,0,0,0,0c-1.2-1.1-1.8-2.6-1.8-4.3V52.4
	c0-1.6,0.6-3.2,1.8-4.3c2.3-2.3,6.1-2.3,8.4,0c0,0,0,0,0,0c1.2,1.1,1.8,2.6,1.8,4.3V69.2z M83.7,86.7h36.5V74.5H98.1l18-34.7
	c1-1.8,1.7-3.4,2.3-4.7c0.5-1.2,0.9-2.5,1.2-3.8c0.2-1.3,0.4-2.7,0.5-4c0.1-1.4,0.1-3.1,0.1-5.2c0-2.8-0.3-5.5-1-8.2
	c-0.6-2.5-1.7-4.8-3.2-6.8c-1.5-2-3.4-3.6-5.6-4.7c-2.6-1.2-5.4-1.8-8.2-1.7c-2.5,0-4.9,0.5-7.2,1.5c-2.2,1-4.2,2.3-5.8,4
	c-1.7,1.7-3,3.7-3.9,5.9c-1,2.3-1.5,4.7-1.4,7.2v6.7H96v-7c-0.3-3,1.8-5.8,4.9-6.1c0.4,0,0.7,0,1.1,0c1.2-0.1,2.4,0.2,3.5,0.9
	c0.8,0.6,1.4,1.3,1.7,2.2c0.4,1,0.6,2,0.7,3.1c0.1,1.2,0.1,2.3,0.1,3.3c0,2.3-0.1,4.3-0.2,5.8c-0.3,1.9-0.9,3.8-1.9,5.5L83.7,75.2
	V86.7L83.7,86.7z M165.9,62.4h-12.2v4.2c0,1.4-0.2,2.9-0.7,4.2c-0.4,1-1,1.9-1.9,2.6c-0.7,0.6-1.6,1.1-2.5,1.4
	c-0.8,0.3-1.7,0.4-2.6,0.4c-2.8,0-4.7-0.8-5.8-2.5c-1.1-1.9-1.7-4-1.6-6.2V22.8c-0.1-2.5,0.4-4.9,1.5-7.1c1-1.9,3-2.8,6.1-2.8
	c2.2-0.1,4.2,0.9,5.5,2.6c1.4,1.8,2.1,4,2,6.2v4.1h12.2V21c0-2.8-0.5-5.6-1.5-8.2c-0.9-2.4-2.3-4.6-4.1-6.5
	c-1.8-1.8-3.9-3.2-6.2-4.2c-2.5-1-5.1-1.5-7.8-1.5c-2.8,0-5.5,0.5-8.1,1.5c-2.4,0.9-4.5,2.4-6.3,4.1c-1.8,1.8-3.2,3.9-4.1,6.2
	c-1,2.5-1.5,5.1-1.4,7.8v47c-0.1,3.3,0.5,6.7,1.9,9.7c1.1,2.4,2.7,4.5,4.7,6.2c1.9,1.6,4.1,2.7,6.5,3.3c2.3,0.6,4.7,0.9,7.1,1
	c2.6,0,5.2-0.5,7.6-1.6c2.3-1,4.4-2.5,6.2-4.3c1.8-1.8,3.2-4,4.1-6.3c1-2.4,1.5-5,1.5-7.6V62.4z M192.2,86.7h12.2V53.4h6.2
	c4.6,0,8.2-0.8,11-2.3c2.8-1.5,5.1-3.8,6.7-6.5c1.4-2.3,2.4-4.8,2.8-7.5c0.5-3.2,0.7-6.4,0.7-9.7c0.1-4.1-0.3-8.2-1.2-12.2
	c-0.8-2.9-2.3-5.6-4.3-7.9c-1.9-2.1-4.3-3.7-7-4.7c-2.9-0.9-5.9-1.4-8.9-1.3h-18.4L192.2,86.7L192.2,86.7z M204.4,12.8h6.4
	c1.9-0.1,3.8,0.3,5.5,1.1c1.2,0.7,2.2,1.8,2.8,3.1c0.6,1.5,1,3.1,1.1,4.7c0.1,1.8,0.2,3.7,0.2,5.7c0,2.2-0.1,4.1-0.2,5.9
	c-0.1,1.6-0.5,3.1-1.1,4.5c-0.7,1.3-1.7,2.3-3,2.9c-1.8,0.8-3.8,1.2-5.8,1.1h-5.9V12.8z M250.3,12.8h6.4c1.8-0.1,3.7,0.2,5.4,0.8
	c1.3,0.5,2.4,1.4,3.2,2.6c0.8,1.3,1.3,2.7,1.5,4.2c0.5,3.8,0.5,7.6,0,11.4c-0.2,1.5-0.6,2.9-1.4,4.1c-0.7,1.1-1.7,2-2.9,2.6
	c-1.6,0.7-3.4,1-5.2,0.9h-7V12.8z M238,86.7h12.2V50.2h7.3L269,86.7h13l-13.2-39c3.6-1.9,6.5-4.9,8.2-8.6c1.7-4.1,2.5-8.4,2.3-12.8
	c0-16.7-7.2-25.1-21.6-25.1H238L238,86.7L238,86.7z M285.4,66.6c-0.1,3.2,0.5,6.3,1.8,9.2c1.1,2.5,2.7,4.7,4.7,6.5
	c1.9,1.7,4.2,3,6.6,3.9c4.8,1.8,10,1.8,14.8,0c2.4-0.9,4.7-2.2,6.6-3.9c2-1.8,3.6-4,4.7-6.5c1.3-2.9,1.9-6,1.8-9.2V21.4
	c0.1-3.1-0.6-6.2-1.8-9.1c-1.1-2.5-2.7-4.7-4.7-6.5c-1.9-1.7-4.2-3-6.6-3.9c-4.8-1.8-10-1.8-14.8,0c-2.4,0.9-4.7,2.2-6.6,3.9
	c-2,1.8-3.6,4-4.7,6.5c-1.2,2.9-1.9,6-1.8,9.1V66.6z M297.7,21.4c0-3,0.8-5.1,2.5-6.5c3.4-2.8,8.3-2.8,11.6,0
	c1.6,1.4,2.5,3.6,2.5,6.5v45.1c0,3-0.8,5.1-2.5,6.5c-3.4,2.8-8.3,2.8-11.6,0c-1.6-1.4-2.5-3.6-2.5-6.5V21.4z M362.7,1.3h-12.2v63.6
	c0.1,1.8-0.2,3.6-0.9,5.2c-0.5,1.2-1.2,2.2-2.2,3.1c-0.8,0.7-1.7,1.3-2.7,1.6c-0.8,0.3-1.7,0.4-2.5,0.4c-1.3,0-2.5-0.3-3.7-0.9
	c-1.1-0.6-2.2-1.3-3.1-2.2l-9.6,7.7c1.8,1.9,3.9,3.7,6.2,5.1c2.9,1.8,6.3,2.7,9.8,2.6c3,0.1,6-0.5,8.8-1.7c2.5-1.1,4.7-2.6,6.5-4.6
	c1.8-1.9,3.2-4.2,4.1-6.7c1-2.5,1.5-5.3,1.4-8L362.7,1.3L362.7,1.3z M368.4,86.7h12.2V74.5h-12.2V86.7z"/>
</svg>
