<?xml version="1.0" encoding="utf-8"?>
<!-- Generator: Adobe Illustrator 23.0.1, SVG Export Plug-In . SVG Version: 6.00 Build 0)  -->
<svg version="1.1" id="Layer_1" xmlns="http://www.w3.org/2000/svg" xmlns:xlink="http://www.w3.org/1999/xlink" x="0px" y="0px"
	 viewBox="0 0 30 30" style="enable-background:new 0 0 30 30;" xml:space="preserve">
<style type="text/css">
	.st0{fill-rule:evenodd;clip-rule:evenodd;fill:#FFFFFF;}
</style>
<path id="twitter" class="st0" d="M26.4,6.1L26.4,6.1c1-0.3,1.8-1,2.4-1.8c-0.2,1.2-0.9,2.3-2,3c0,0,0,0,0,0
	c0.2,0.6,0.3,1.1,0.3,1.7c0,0.2,0,0.3,0,0.5c0,0,0,0,0-0.1c0,0,0,0.1,0,0.1c0,9.9-8,18-17.9,18c0,0,0,0,0,0c-2.2,0-4.3-0.4-6.3-1.2
	c2.4-0.4,4.7-1.2,6.7-2.5c-3.1-0.2-5.8-2.1-7-5c0.9,0.3,1.9,0.4,2.8,0.5c-2.2-1.3-3.8-3.5-4.5-6C2,13.9,3,14.3,4,14.6
	C1.2,11.7,0.5,7.4,2.1,3.8c2.8,4.2,7.5,6.6,12.5,6.7c0.1,0,0.1,0,0.2,0l0,0c0-0.1,0-0.1,0-0.2l0,0c-0.1-0.4-0.1-0.7-0.1-1.1
	c0-0.7,0.1-1.3,0.3-2c0,0,0-0.1,0-0.1c0.1-0.3,0.2-0.6,0.4-0.9c0-0.1,0.1-0.1,0.1-0.2c0.1-0.2,0.3-0.5,0.5-0.7
	C16.1,5.1,16.1,5,16.2,5c0.2-0.2,0.3-0.4,0.5-0.5c0.1-0.1,0.2-0.2,0.3-0.3c0.2-0.1,0.3-0.3,0.5-0.4c0.2-0.1,0.3-0.2,0.5-0.3
	s0.3-0.2,0.5-0.2C18.8,3.1,19,3.1,19.3,3c0.1,0,0.3-0.1,0.4-0.1c0.4-0.1,0.8-0.1,1.2-0.1c0.4,0,0.8,0,1.3,0.1c0.3,0.1,0.7,0.2,1,0.3
	c0.1,0,0.1,0,0.2,0.1c0.7,0.3,1.4,0.8,2,1.3l0,0c1.3-0.3,2.4-1.1,3.2-2.2C28.5,3.9,27.7,5.3,26.4,6.1z"/>
</svg>
