<svg xmlns="http://www.w3.org/2000/svg" width="30" height="30" viewBox="0 0 30 30">
  <defs>
    <style>
      .cls-1 {
        fill: #090909;
        fill-rule: evenodd;
      }
    </style>
  </defs>
  <path id="twitter" class="cls-1" d="M543.889,313.3l0.04,0.074a5.378,5.378,0,0,0,2.4-1.877,4.489,4.489,0,0,1-1.963,2.971c0,0.015.006,0.031,0.011,0.046a6.269,6.269,0,0,1,.271,1.737c0,0.163-.036.316-0.048,0.476,0.014-.018.03-0.035,0.044-0.053,0,0.028,0,.055,0,0.083a17.93,17.93,0,0,1-17.86,18,17.658,17.658,0,0,1-6.3-1.173,17.641,17.641,0,0,0,6.73-2.506,8.045,8.045,0,0,1-6.969-4.994,9.733,9.733,0,0,0,2.831.45,9.911,9.911,0,0,1-4.45-5.962,10.736,10.736,0,0,0,2.865,1.185,9.932,9.932,0,0,1-1.927-10.809,15.127,15.127,0,0,0,12.519,6.653c0.069,0,.136-0.01.2-0.011h0c-0.015-.073-0.023-0.147-0.036-0.22h0a6.152,6.152,0,0,1-.112-1.119,6.277,6.277,0,0,1,.349-1.989c0.013-.04.023-0.081,0.037-0.12a6.218,6.218,0,0,1,.38-0.853c0.036-.068.07-0.135,0.108-0.2a6.323,6.323,0,0,1,.469-0.7c0.068-.088.138-0.173,0.211-0.257a6.107,6.107,0,0,1,.517-0.538c0.109-.1.226-0.192,0.342-0.285a6.411,6.411,0,0,1,.527-0.386c0.16-.1.329-0.185,0.5-0.272s0.327-.176.5-0.246a6.41,6.41,0,0,1,.693-0.217c0.14-.038.274-0.09,0.419-0.118a6.158,6.158,0,0,1,1.2-.122,6.236,6.236,0,0,1,1.253.127,6.089,6.089,0,0,1,.977.305c0.061,0.023.128,0.033,0.187,0.058a6.285,6.285,0,0,1,1.977,1.333h0a5.362,5.362,0,0,0,3.19-2.186A4.485,4.485,0,0,1,543.889,313.3Z" transform="translate(-517.485 -307.172)"/>
</svg>
